0
SECTION
2
HEADER
9
$INSUNITS
70
4
9
$ACADVER
1
AC1014
9
$HANDSEED
5
FFFF
0
ENDSEC
0
SECTION
2
TABLES
0
TABLE
2
VPORT
5
8
100
AcDbSymbolTable
0
ENDTAB
0
TABLE
2
LTYPE
5
5
100
AcDbSymbolTable
0
LTYPE
5
14
100
AcDbSymbolTableRecord
100
AcDbLinetypeTableRecord
2
BYBLOCK
70
0
0
LTYPE
5
15
100
AcDbSymbolTableRecord
100
AcDbLinetypeTableRecord
2
BYLAYER
70
0
0
ENDTAB
0
TABLE
2
LAYER
5
2
100
AcDbSymbolTable
70
2
0
LAYER
5
50
100
AcDbSymbolTableRecord
100
AcDbLayerTableRecord
2
0
70
0
6
CONTINUOUS
0
ENDTAB
0
TABLE
2
STYLE
5
3
100
AcDbSymbolTable
70
1
0
STYLE
5
11
100
AcDbSymbolTableRecord
100
AcDbTextStyleTableRecord
2
STANDARD
70
0
0
ENDTAB
0
TABLE
2
VIEW
5
6
100
AcDbSymbolTable
70
0
0
ENDTAB
0
TABLE
2
UCS
5
7
100
AcDbSymbolTable
70
0
0
ENDTAB
0
TABLE
2
APPID
5
9
100
AcDbSymbolTable
70
2
0
APPID
5
12
100
AcDbSymbolTableRecord
100
AcDbRegAppTableRecord
2
ACAD
70
0
0
ENDTAB
0
TABLE
2
DIMSTYLE
5
A
100
AcDbSymbolTable
70
1
0
ENDTAB
0
TABLE
2
BLOCK_RECORD
5
1
100
AcDbSymbolTable
70
1
0
BLOCK_RECORD
5
1F
100
AcDbSymbolTableRecord
100
AcDbBlockTableRecord
2
*MODEL_SPACE
0
BLOCK_RECORD
5
1B
100
AcDbSymbolTableRecord
100
AcDbBlockTableRecord
2
*PAPER_SPACE
0
ENDTAB
0
ENDSEC
0
SECTION
2
BLOCKS
0
BLOCK
5
20
100
AcDbEntity
100
AcDbBlockBegin
2
*MODEL_SPACE
0
ENDBLK
5
21
100
AcDbEntity
100
AcDbBlockEnd
0
BLOCK
5
1C
100
AcDbEntity
100
AcDbBlockBegin
2
*PAPER_SPACE
0
ENDBLK
5
1D
100
AcDbEntity
100
AcDbBlockEnd
0
ENDSEC
0
SECTION
2
ENTITIES
0
LWPOLYLINE
5
100
100
AcDbEntity
8
0
100
AcDbPolyline
90
56
70
1
43
0.0
10
1.9999999381070666e-05
20
109.12413200000006
10
0.087887999999338717
20
109.21200000000002
10
354.21215199999892
20
109.21200000000002
10
354.30001999999945
20
109.12413200000006
10
354.30001999999945
20
68.36191800000006
10
354.21215199999892
20
68.274050000000017
10
350.30001999999911
20
68.274050000000017
10
350.30001999999911
20
40.849950000000028
10
354.21215199999892
20
40.849950000000028
10
354.30001999999945
20
40.762082000000035
10
354.30001999999945
20
-0.00013199999997937084
10
354.21215199999892
20
-0.087999999999972545
10
329.57043799999951
20
-0.087999999999972545
10
329.48256999999899
20
-0.00013199999997937084
10
329.48256999999899
20
3.9120000000000132
10
302.05846999999949
20
3.9120000000000132
10
302.05846999999949
20
-0.00013199999997937084
10
301.97060199999896
20
-0.087999999999972545
10
274.12223799999936
20
-0.087999999999972545
10
274.0343699999994
20
-0.00013199999997937084
10
274.0343699999994
20
3.9120000000000132
10
246.61026999999933
20
3.9120000000000132
10
246.61026999999933
20
-0.00013199999997937084
10
246.52240199999937
20
-0.087999999999972545
10
218.6740379999992
20
-0.087999999999972545
10
218.58616999999924
20
-0.00013199999997937084
10
218.58616999999924
20
3.9120000000000132
10
191.16206999999918
20
3.9120000000000132
10
191.16206999999918
20
-0.00013199999997937084
10
191.07420199999922
20
-0.087999999999972545
10
163.22583799999904
20
-0.087999999999972545
10
163.13796999999909
20
-0.00013199999997937084
10
163.13796999999909
20
3.9120000000000132
10
135.71386999999902
20
3.9120000000000132
10
135.71386999999902
20
-0.00013199999997937084
10
135.62600199999906
20
-0.087999999999972545
10
107.77763799999889
20
-0.087999999999972545
10
107.68976999999893
20
-0.00013199999997937084
10
107.68976999999893
20
3.9120000000000132
10
80.265669999998863
20
3.9120000000000132
10
80.265669999998863
20
-0.00013199999997937084
10
80.177801999998906
20
-0.087999999999972545
10
52.3294379999993
20
-0.087999999999972545
10
52.241569999999342
20
-0.00013199999997937084
10
52.241569999999342
20
3.9120000000000132
10
24.817469999999275
20
3.9120000000000132
10
24.817469999999275
20
-0.00013199999997937084
10
24.729601999999318
20
-0.087999999999972545
10
0.087887999999338717
20
-0.087999999999972545
10
1.9999999381070666e-05
20
-0.00013199999997937084
10
1.9999999381070666e-05
20
40.762082000000035
10
0.087887999999338717
20
40.849950000000028
10
4.0000199999991537
20
40.849950000000028
10
4.0000199999991537
20
68.274050000000017
10
0.087887999999338717
20
68.274050000000017
10
1.9999999381070666e-05
20
68.36191800000006
0
ENDSEC
0
SECTION
2
OBJECTS
0
DICTIONARY
5
C
100
AcDbDictionary
3
ACAD_GROUP
350
D
3
ACAD_MLINESTYLE
350
17
0
DICTIONARY
5
D
100
AcDbDictionary
0
DICTIONARY
5
1A
330
C
100
AcDbDictionary
0
DICTIONARY
5
17
100
AcDbDictionary
0
ENDSEC
0
EOF
