0
SECTION
2
HEADER
9
$INSUNITS
70
4
9
$ACADVER
1
AC1014
9
$HANDSEED
5
FFFF
0
ENDSEC
0
SECTION
2
TABLES
0
TABLE
2
VPORT
5
8
100
AcDbSymbolTable
0
ENDTAB
0
TABLE
2
LTYPE
5
5
100
AcDbSymbolTable
0
LTYPE
5
14
100
AcDbSymbolTableRecord
100
AcDbLinetypeTableRecord
2
BYBLOCK
70
0
0
LTYPE
5
15
100
AcDbSymbolTableRecord
100
AcDbLinetypeTableRecord
2
BYLAYER
70
0
0
ENDTAB
0
TABLE
2
LAYER
5
2
100
AcDbSymbolTable
70
2
0
LAYER
5
50
100
AcDbSymbolTableRecord
100
AcDbLayerTableRecord
2
0
70
0
6
CONTINUOUS
0
ENDTAB
0
TABLE
2
STYLE
5
3
100
AcDbSymbolTable
70
1
0
STYLE
5
11
100
AcDbSymbolTableRecord
100
AcDbTextStyleTableRecord
2
STANDARD
70
0
0
ENDTAB
0
TABLE
2
VIEW
5
6
100
AcDbSymbolTable
70
0
0
ENDTAB
0
TABLE
2
UCS
5
7
100
AcDbSymbolTable
70
0
0
ENDTAB
0
TABLE
2
APPID
5
9
100
AcDbSymbolTable
70
2
0
APPID
5
12
100
AcDbSymbolTableRecord
100
AcDbRegAppTableRecord
2
ACAD
70
0
0
ENDTAB
0
TABLE
2
DIMSTYLE
5
A
100
AcDbSymbolTable
70
1
0
ENDTAB
0
TABLE
2
BLOCK_RECORD
5
1
100
AcDbSymbolTable
70
1
0
BLOCK_RECORD
5
1F
100
AcDbSymbolTableRecord
100
AcDbBlockTableRecord
2
*MODEL_SPACE
0
BLOCK_RECORD
5
1B
100
AcDbSymbolTableRecord
100
AcDbBlockTableRecord
2
*PAPER_SPACE
0
ENDTAB
0
ENDSEC
0
SECTION
2
BLOCKS
0
BLOCK
5
20
100
AcDbEntity
100
AcDbBlockBegin
2
*MODEL_SPACE
0
ENDBLK
5
21
100
AcDbEntity
100
AcDbBlockEnd
0
BLOCK
5
1C
100
AcDbEntity
100
AcDbBlockBegin
2
*PAPER_SPACE
0
ENDBLK
5
1D
100
AcDbEntity
100
AcDbBlockEnd
0
ENDSEC
0
SECTION
2
ENTITIES
0
LWPOLYLINE
5
100
100
AcDbEntity
8
0
100
AcDbPolyline
90
50
70
1
43
0.0
10
598.61026999999922
20
-0.00013199999997937084
10
598.61026999999922
20
3.9120000000000132
10
571.18616999999972
20
3.9120000000000132
10
571.18616999999972
20
-0.00013199999997937084
10
571.09830199999919
20
-0.087999999999972545
10
543.24993799999902
20
-0.087999999999972545
10
543.16206999999963
20
-0.00013199999997937084
10
543.16206999999963
20
3.9120000000000132
10
515.737969999999
20
3.9120000000000132
10
515.737969999999
20
-0.00013199999997937084
10
515.65010199999961
20
-0.087999999999972545
10
487.80173799999943
20
-0.087999999999972545
10
487.71386999999891
20
-0.00013199999997937084
10
487.71386999999891
20
3.9120000000000132
10
460.28976999999941
20
3.9120000000000132
10
460.28976999999941
20
-0.00013199999997937084
10
460.20190199999888
20
-0.087999999999972545
10
432.35353799999928
20
-0.087999999999972545
10
432.26566999999932
20
-0.00013199999997937084
10
432.26566999999932
20
3.9120000000000132
10
404.84156999999925
20
3.9120000000000132
10
404.84156999999925
20
-0.00013199999997937084
10
404.75370199999929
20
-0.087999999999972545
10
361.38788799999929
20
-0.087999999999972545
10
361.30001999999934
20
-0.00013199999997937084
10
361.30001999999934
20
40.549950000000017
10
357.38788799999952
20
40.549950000000017
10
357.30001999999899
20
40.63781800000001
10
357.30001999999899
20
68.486182000000014
10
357.38788799999952
20
68.574050000000028
10
361.30001999999934
20
68.574050000000028
10
361.30001999999934
20
109.12413200000006
10
361.38788799999929
20
109.21200000000002
10
697.51215199999933
20
109.21200000000002
10
697.60001999999986
20
109.12413200000006
10
697.60001999999986
20
68.574050000000028
10
701.51215199999911
20
68.574050000000028
10
701.60001999999963
20
68.486182000000014
10
701.60001999999963
20
40.63781800000001
10
701.51215199999911
20
40.549950000000017
10
697.60001999999986
20
40.549950000000017
10
697.60001999999986
20
-0.00013199999997937084
10
697.51215199999933
20
-0.087999999999972545
10
654.14633799999933
20
-0.087999999999972545
10
654.05846999999881
20
-0.00013199999997937084
10
654.05846999999881
20
3.9120000000000132
10
626.63436999999931
20
3.9120000000000132
10
626.63436999999931
20
-0.00013199999997937084
10
626.54650199999878
20
-0.087999999999972545
10
598.69813799999974
20
-0.087999999999972545
0
ENDSEC
0
SECTION
2
OBJECTS
0
DICTIONARY
5
C
100
AcDbDictionary
3
ACAD_GROUP
350
D
3
ACAD_MLINESTYLE
350
17
0
DICTIONARY
5
D
100
AcDbDictionary
0
DICTIONARY
5
1A
330
C
100
AcDbDictionary
0
DICTIONARY
5
17
100
AcDbDictionary
0
ENDSEC
0
EOF
