0
SECTION
2
HEADER
9
$INSUNITS
70
4
9
$ACADVER
1
AC1014
9
$HANDSEED
5
FFFF
0
ENDSEC
0
SECTION
2
TABLES
0
TABLE
2
VPORT
5
8
100
AcDbSymbolTable
0
ENDTAB
0
TABLE
2
LTYPE
5
5
100
AcDbSymbolTable
0
LTYPE
5
14
100
AcDbSymbolTableRecord
100
AcDbLinetypeTableRecord
2
BYBLOCK
70
0
0
LTYPE
5
15
100
AcDbSymbolTableRecord
100
AcDbLinetypeTableRecord
2
BYLAYER
70
0
0
ENDTAB
0
TABLE
2
LAYER
5
2
100
AcDbSymbolTable
70
2
0
LAYER
5
50
100
AcDbSymbolTableRecord
100
AcDbLayerTableRecord
2
0
70
0
6
CONTINUOUS
0
ENDTAB
0
TABLE
2
STYLE
5
3
100
AcDbSymbolTable
70
1
0
STYLE
5
11
100
AcDbSymbolTableRecord
100
AcDbTextStyleTableRecord
2
STANDARD
70
0
0
ENDTAB
0
TABLE
2
VIEW
5
6
100
AcDbSymbolTable
70
0
0
ENDTAB
0
TABLE
2
UCS
5
7
100
AcDbSymbolTable
70
0
0
ENDTAB
0
TABLE
2
APPID
5
9
100
AcDbSymbolTable
70
2
0
APPID
5
12
100
AcDbSymbolTableRecord
100
AcDbRegAppTableRecord
2
ACAD
70
0
0
ENDTAB
0
TABLE
2
DIMSTYLE
5
A
100
AcDbSymbolTable
70
1
0
ENDTAB
0
TABLE
2
BLOCK_RECORD
5
1
100
AcDbSymbolTable
70
1
0
BLOCK_RECORD
5
1F
100
AcDbSymbolTableRecord
100
AcDbBlockTableRecord
2
*MODEL_SPACE
0
BLOCK_RECORD
5
1B
100
AcDbSymbolTableRecord
100
AcDbBlockTableRecord
2
*PAPER_SPACE
0
ENDTAB
0
ENDSEC
0
SECTION
2
BLOCKS
0
BLOCK
5
20
100
AcDbEntity
100
AcDbBlockBegin
2
*MODEL_SPACE
0
ENDBLK
5
21
100
AcDbEntity
100
AcDbBlockEnd
0
BLOCK
5
1C
100
AcDbEntity
100
AcDbBlockBegin
2
*PAPER_SPACE
0
ENDBLK
5
1D
100
AcDbEntity
100
AcDbBlockEnd
0
ENDSEC
0
SECTION
2
ENTITIES
0
LINE
5
100
100
AcDbEntity
8
0
100
AcDbLine
10
701.60001999999974
20
180.78618200000008
30
0
11
701.60001999999974
21
152.93781800000011
31
0
0
LINE
5
101
100
AcDbEntity
8
0
100
AcDbLine
10
598.69813799999963
20
112.21200000000009
30
0
11
598.61026999999922
21
112.29986800000005
31
0
0
LINE
5
102
100
AcDbEntity
8
0
100
AcDbLine
10
697.60001999999986
20
180.87405000000007
30
0
11
701.51215199999911
21
180.87405000000007
31
0
0
LINE
5
103
100
AcDbEntity
8
0
100
AcDbLine
10
460.28976999999941
20
116.21200000000003
30
0
11
460.28976999999941
21
112.29986800000005
31
0
0
LINE
5
104
100
AcDbEntity
8
0
100
AcDbLine
10
404.75370199999929
20
112.21200000000009
30
0
11
361.38788799999924
21
112.21200000000009
31
0
0
LINE
5
105
100
AcDbEntity
8
0
100
AcDbLine
10
460.20190199999888
20
112.21200000000009
30
0
11
432.35353799999928
21
112.21200000000009
31
0
0
LINE
5
106
100
AcDbEntity
8
0
100
AcDbLine
10
697.51215199999922
20
221.51200000000011
30
0
11
697.60001999999986
21
221.42413200000007
31
0
0
LINE
5
107
100
AcDbEntity
8
0
100
AcDbLine
10
697.60001999999986
20
112.29986800000005
30
0
11
697.51215199999922
21
112.21200000000009
31
0
0
LINE
5
108
100
AcDbEntity
8
0
100
AcDbLine
10
357.30001999999894
20
180.78618200000008
30
0
11
357.38788799999946
21
180.87405000000007
31
0
0
LINE
5
109
100
AcDbEntity
8
0
100
AcDbLine
10
654.14633799999922
20
112.21200000000009
30
0
11
654.05846999999881
21
112.29986800000005
31
0
0
LINE
5
110
100
AcDbEntity
8
0
100
AcDbLine
10
404.84156999999925
20
116.21200000000003
30
0
11
404.84156999999925
21
112.29986800000005
31
0
0
LINE
5
111
100
AcDbEntity
8
0
100
AcDbLine
10
626.63436999999919
20
112.29986800000005
30
0
11
626.54650199999878
21
112.21200000000009
31
0
0
LINE
5
112
100
AcDbEntity
8
0
100
AcDbLine
10
357.38788799999946
20
152.84995000000012
30
0
11
357.30001999999894
21
152.93781800000011
31
0
0
LINE
5
113
100
AcDbEntity
8
0
100
AcDbLine
10
357.30001999999894
20
152.93781800000011
30
0
11
357.30001999999894
21
180.78618200000008
31
0
0
LINE
5
114
100
AcDbEntity
8
0
100
AcDbLine
10
543.16206999999963
20
112.29986800000005
30
0
11
543.16206999999963
21
116.21200000000003
31
0
0
LINE
5
115
100
AcDbEntity
8
0
100
AcDbLine
10
626.54650199999878
20
112.21200000000009
30
0
11
598.69813799999963
21
112.21200000000009
31
0
0
LINE
5
116
100
AcDbEntity
8
0
100
AcDbLine
10
460.28976999999941
20
112.29986800000005
30
0
11
460.20190199999888
21
112.21200000000009
31
0
0
LINE
5
117
100
AcDbEntity
8
0
100
AcDbLine
10
515.737969999999
20
112.29986800000005
30
0
11
515.65010199999961
21
112.21200000000009
31
0
0
LINE
5
118
100
AcDbEntity
8
0
100
AcDbLine
10
543.16206999999963
20
116.21200000000003
30
0
11
515.737969999999
21
116.21200000000003
31
0
0
LINE
5
119
100
AcDbEntity
8
0
100
AcDbLine
10
654.05846999999881
20
112.29986800000005
30
0
11
654.05846999999881
21
116.21200000000003
31
0
0
LINE
5
120
100
AcDbEntity
8
0
100
AcDbLine
10
701.51215199999911
20
152.84995000000012
30
0
11
697.60001999999986
21
152.84995000000012
31
0
0
LINE
5
121
100
AcDbEntity
8
0
100
AcDbLine
10
357.38788799999946
20
180.87405000000007
30
0
11
361.30001999999939
21
180.87405000000007
31
0
0
LINE
5
122
100
AcDbEntity
8
0
100
AcDbLine
10
432.26566999999932
20
112.29986800000005
30
0
11
432.26566999999932
21
116.21200000000003
31
0
0
LINE
5
123
100
AcDbEntity
8
0
100
AcDbLine
10
701.60001999999974
20
152.93781800000011
30
0
11
701.51215199999911
21
152.84995000000012
31
0
0
LINE
5
124
100
AcDbEntity
8
0
100
AcDbLine
10
515.65010199999961
20
112.21200000000009
30
0
11
487.80173799999943
21
112.21200000000009
31
0
0
LINE
5
125
100
AcDbEntity
8
0
100
AcDbLine
10
598.61026999999922
20
116.21200000000003
30
0
11
571.18616999999961
21
116.21200000000003
31
0
0
LINE
5
126
100
AcDbEntity
8
0
100
AcDbLine
10
361.30001999999939
20
180.87405000000007
30
0
11
361.30001999999939
21
221.42413200000007
31
0
0
LINE
5
127
100
AcDbEntity
8
0
100
AcDbLine
10
571.09830199999919
20
112.21200000000009
30
0
11
543.24993799999913
21
112.21200000000009
31
0
0
LINE
5
128
100
AcDbEntity
8
0
100
AcDbLine
10
361.38788799999924
20
221.51200000000011
30
0
11
697.51215199999922
21
221.51200000000011
31
0
0
LINE
5
129
100
AcDbEntity
8
0
100
AcDbLine
10
697.60001999999986
20
152.84995000000012
30
0
11
697.60001999999986
21
112.29986800000005
31
0
0
LINE
5
130
100
AcDbEntity
8
0
100
AcDbLine
10
404.84156999999925
20
112.29986800000005
30
0
11
404.75370199999929
21
112.21200000000009
31
0
0
LINE
5
131
100
AcDbEntity
8
0
100
AcDbLine
10
361.30001999999939
20
152.84995000000012
30
0
11
357.38788799999946
21
152.84995000000012
31
0
0
LINE
5
132
100
AcDbEntity
8
0
100
AcDbLine
10
697.60001999999986
20
221.42413200000007
30
0
11
697.60001999999986
21
180.87405000000007
31
0
0
LINE
5
133
100
AcDbEntity
8
0
100
AcDbLine
10
571.18616999999961
20
112.29986800000005
30
0
11
571.09830199999919
21
112.21200000000009
31
0
0
LINE
5
134
100
AcDbEntity
8
0
100
AcDbLine
10
626.63436999999919
20
116.21200000000003
30
0
11
626.63436999999919
21
112.29986800000005
31
0
0
LINE
5
135
100
AcDbEntity
8
0
100
AcDbLine
10
432.35353799999928
20
112.21200000000009
30
0
11
432.26566999999932
21
112.29986800000005
31
0
0
LINE
5
136
100
AcDbEntity
8
0
100
AcDbLine
10
361.30001999999939
20
221.42413200000007
30
0
11
361.38788799999924
21
221.51200000000011
31
0
0
LINE
5
137
100
AcDbEntity
8
0
100
AcDbLine
10
598.61026999999922
20
112.29986800000005
30
0
11
598.61026999999922
21
116.21200000000003
31
0
0
LINE
5
138
100
AcDbEntity
8
0
100
AcDbLine
10
697.51215199999922
20
112.21200000000009
30
0
11
654.14633799999922
21
112.21200000000009
31
0
0
LINE
5
139
100
AcDbEntity
8
0
100
AcDbLine
10
487.80173799999943
20
112.21200000000009
30
0
11
487.71386999999891
21
112.29986800000005
31
0
0
LINE
5
140
100
AcDbEntity
8
0
100
AcDbLine
10
543.24993799999913
20
112.21200000000009
30
0
11
543.16206999999963
21
112.29986800000005
31
0
0
LINE
5
141
100
AcDbEntity
8
0
100
AcDbLine
10
571.18616999999961
20
116.21200000000003
30
0
11
571.18616999999961
21
112.29986800000005
31
0
0
LINE
5
142
100
AcDbEntity
8
0
100
AcDbLine
10
432.26566999999932
20
116.21200000000003
30
0
11
404.84156999999925
21
116.21200000000003
31
0
0
LINE
5
143
100
AcDbEntity
8
0
100
AcDbLine
10
361.38788799999924
20
112.21200000000009
30
0
11
361.30001999999939
21
112.29986800000005
31
0
0
LINE
5
144
100
AcDbEntity
8
0
100
AcDbLine
10
361.30001999999939
20
112.29986800000005
30
0
11
361.30001999999939
21
152.84995000000012
31
0
0
LINE
5
145
100
AcDbEntity
8
0
100
AcDbLine
10
515.737969999999
20
116.21200000000003
30
0
11
515.737969999999
21
112.29986800000005
31
0
0
LINE
5
146
100
AcDbEntity
8
0
100
AcDbLine
10
487.71386999999891
20
116.21200000000003
30
0
11
460.28976999999941
21
116.21200000000003
31
0
0
LINE
5
147
100
AcDbEntity
8
0
100
AcDbLine
10
701.51215199999911
20
180.87405000000007
30
0
11
701.60001999999974
21
180.78618200000008
31
0
0
LINE
5
148
100
AcDbEntity
8
0
100
AcDbLine
10
654.05846999999881
20
116.21200000000003
30
0
11
626.63436999999919
21
116.21200000000003
31
0
0
LINE
5
149
100
AcDbEntity
8
0
100
AcDbLine
10
487.71386999999891
20
112.29986800000005
30
0
11
487.71386999999891
21
116.21200000000003
31
0
0
LINE
5
150
100
AcDbEntity
8
0
100
AcDbLine
10
697.51215199999922
20
221.51200000000011
30
0
11
675.51215199999911
21
221.51200000000011
31
0
0
LINE
5
151
100
AcDbEntity
8
0
100
AcDbLine
10
675.51215199999911
20
221.51200000000011
30
0
11
675.51215199999911
21
146.51200000000011
31
0
0
LINE
5
152
100
AcDbEntity
8
0
100
AcDbLine
10
675.51215199999911
20
146.51200000000011
30
0
11
633.51215199999911
21
146.51200000000011
31
0
0
LINE
5
153
100
AcDbEntity
8
0
100
AcDbLine
10
633.51215199999911
20
146.51200000000011
30
0
11
633.51215199999911
21
221.51200000000011
31
0
0
LINE
5
154
100
AcDbEntity
8
0
100
AcDbLine
10
361.38788799999924
20
221.51200000000011
30
0
11
383.38788799999924
21
221.51200000000011
31
0
0
LINE
5
155
100
AcDbEntity
8
0
100
AcDbLine
10
383.38788799999924
20
221.51200000000011
30
0
11
383.38788799999924
21
149.51200000000011
31
0
0
LINE
5
156
100
AcDbEntity
8
0
100
AcDbLine
10
383.38788799999924
20
149.51200000000011
30
0
11
425.38788799999929
21
149.51200000000011
31
0
0
LINE
5
157
100
AcDbEntity
8
0
100
AcDbLine
10
425.38788799999929
20
149.51200000000011
30
0
11
425.38788799999929
21
221.51200000000011
31
0
0
ENDSEC
0
SECTION
2
OBJECTS
0
DICTIONARY
5
C
100
AcDbDictionary
3
ACAD_GROUP
350
D
3
ACAD_MLINESTYLE
350
17
0
DICTIONARY
5
D
100
AcDbDictionary
0
DICTIONARY
5
1A
330
C
100
AcDbDictionary
0
DICTIONARY
5
17
100
AcDbDictionary
0
ENDSEC
0
EOF
