0
SECTION
2
HEADER
9
$INSUNITS
70
4
9
$ACADVER
1
AC1014
9
$HANDSEED
5
FFFF
0
ENDSEC
0
SECTION
2
TABLES
0
TABLE
2
VPORT
5
8
100
AcDbSymbolTable
0
ENDTAB
0
TABLE
2
LTYPE
5
5
100
AcDbSymbolTable
0
LTYPE
5
14
100
AcDbSymbolTableRecord
100
AcDbLinetypeTableRecord
2
BYBLOCK
70
0
0
LTYPE
5
15
100
AcDbSymbolTableRecord
100
AcDbLinetypeTableRecord
2
BYLAYER
70
0
0
ENDTAB
0
TABLE
2
LAYER
5
2
100
AcDbSymbolTable
70
2
0
LAYER
5
50
100
AcDbSymbolTableRecord
100
AcDbLayerTableRecord
2
0
70
0
6
CONTINUOUS
0
ENDTAB
0
TABLE
2
STYLE
5
3
100
AcDbSymbolTable
70
1
0
STYLE
5
11
100
AcDbSymbolTableRecord
100
AcDbTextStyleTableRecord
2
STANDARD
70
0
0
ENDTAB
0
TABLE
2
VIEW
5
6
100
AcDbSymbolTable
70
0
0
ENDTAB
0
TABLE
2
UCS
5
7
100
AcDbSymbolTable
70
0
0
ENDTAB
0
TABLE
2
APPID
5
9
100
AcDbSymbolTable
70
2
0
APPID
5
12
100
AcDbSymbolTableRecord
100
AcDbRegAppTableRecord
2
ACAD
70
0
0
ENDTAB
0
TABLE
2
DIMSTYLE
5
A
100
AcDbSymbolTable
70
1
0
ENDTAB
0
TABLE
2
BLOCK_RECORD
5
1
100
AcDbSymbolTable
70
1
0
BLOCK_RECORD
5
1F
100
AcDbSymbolTableRecord
100
AcDbBlockTableRecord
2
*MODEL_SPACE
0
BLOCK_RECORD
5
1B
100
AcDbSymbolTableRecord
100
AcDbBlockTableRecord
2
*PAPER_SPACE
0
ENDTAB
0
ENDSEC
0
SECTION
2
BLOCKS
0
BLOCK
5
20
100
AcDbEntity
100
AcDbBlockBegin
2
*MODEL_SPACE
0
ENDBLK
5
21
100
AcDbEntity
100
AcDbBlockEnd
0
BLOCK
5
1C
100
AcDbEntity
100
AcDbBlockBegin
2
*PAPER_SPACE
0
ENDBLK
5
1D
100
AcDbEntity
100
AcDbBlockEnd
0
ENDSEC
0
SECTION
2
ENTITIES
0
LWPOLYLINE
5
100
100
AcDbEntity
8
0
100
AcDbPolyline
90
140
70
1
43
0.0
10
350.2120199999996
20
209.67401800000007
10
350.12415199999919
20
209.58615000000009
10
346.21201999999982
20
209.58615000000009
10
346.21201999999982
20
182.16204999999999
10
350.12415199999919
20
182.16204999999999
10
350.2120199999996
20
182.07418200000006
10
350.2120199999996
20
154.22581800000006
10
350.12415199999919
20
154.13795000000016
10
346.21201999999982
20
154.13795000000016
10
346.21201999999982
20
126.71385000000015
10
350.12415199999919
20
126.71385000000015
10
350.2120199999996
20
126.62598200000005
10
350.2120199999996
20
98.777618000000032
10
350.12415199999919
20
98.689750000000089
10
346.21201999999982
20
98.689750000000089
10
346.21201999999982
20
71.265650000000022
10
350.12415199999919
20
71.265650000000022
10
350.2120199999996
20
71.17778200000005
10
350.2120199999996
20
43.329418000000018
10
350.12415199999919
20
43.241550000000011
10
346.21201999999982
20
43.241550000000011
10
346.21201999999982
20
0.087868000000010923
10
346.12415199999981
20
1.3322676295501878e-14
10
325.69456999999932
20
1.3322676295501878e-14
10
325.69456999999932
20
-3.9121319999999793
10
325.6067019999997
20
-3.9999999999999729
10
297.75833799999975
20
-3.9999999999999729
10
297.67046999999889
20
-3.9121319999999793
10
297.67046999999889
20
1.3322676295501878e-14
10
270.24636999999939
20
1.3322676295501878e-14
10
270.24636999999939
20
-3.9121319999999793
10
270.15850199999875
20
-3.9999999999999729
10
242.31013799999999
20
-3.9999999999999729
10
242.22226999999933
20
-3.9121319999999793
10
242.22226999999933
20
1.3322676295501878e-14
10
214.79817
20
1.3322676295501878e-14
10
214.79817
20
-3.9121319999999793
10
214.7103019999993
20
-3.9999999999999729
10
186.86193799999916
20
-3.9999999999999729
10
186.77406999999974
20
-3.9121319999999793
10
186.77406999999974
20
1.3322676295501878e-14
10
159.34996999999896
20
1.3322676295501878e-14
10
159.34996999999896
20
-3.9121319999999793
10
159.26210199999986
20
-3.9999999999999729
10
131.41373799999968
20
-3.9999999999999729
10
131.32586999999916
20
-3.9121319999999793
10
131.32586999999916
20
1.3322676295501878e-14
10
103.90176999999966
20
1.3322676295501878e-14
10
103.90176999999966
20
-3.9121319999999793
10
103.813901999999
20
-3.9999999999999729
10
75.965537999998801
20
-3.9999999999999729
10
75.877669999999412
20
-3.9121319999999793
10
75.877669999999412
20
1.3322676295501878e-14
10
48.453569999998649
20
1.3322676295501878e-14
10
48.453569999998649
20
-3.9121319999999793
10
48.36570199999926
20
-3.9999999999999729
10
20.517337999999086
20
-3.9999999999999729
10
20.429469999998702
20
-3.9121319999999793
10
20.429469999998702
20
1.3322676295501878e-14
10
-0.00011200000045619163
20
1.3322676295501878e-14
10
-0.087980000001124381
20
0.087868000000010937
10
-0.087980000001124381
20
43.241550000000011
10
-4.00011200000037
20
43.241550000000011
10
-4.087980000000754
20
43.329418000000018
10
-4.087980000000754
20
71.17778200000005
10
-4.00011200000037
20
71.265650000000022
10
-0.087980000001124381
20
71.265650000000022
10
-0.087980000001124381
20
98.689750000000089
10
-4.00011200000037
20
98.689750000000089
10
-4.087980000000754
20
98.777618000000032
10
-4.087980000000754
20
126.62598200000005
10
-4.00011200000037
20
126.71385000000015
10
-0.087980000001124381
20
126.71385000000015
10
-0.087980000001124381
20
154.13795000000016
10
-4.00011200000037
20
154.13795000000016
10
-4.087980000000754
20
154.22581800000006
10
-4.087980000000754
20
182.07418200000006
10
-4.00011200000037
20
182.16204999999999
10
-0.087980000001124381
20
182.16204999999999
10
-0.087980000001124381
20
209.58615000000009
10
-4.00011200000037
20
209.58615000000009
10
-4.087980000000754
20
209.67401800000007
10
-4.087980000000754
20
237.52238200000008
10
-4.00011200000037
20
237.61025000000015
10
-0.087980000001124381
20
237.61025000000015
10
-0.087980000001124381
20
265.03435000000013
10
-4.00011200000037
20
265.03435000000013
10
-4.087980000000754
20
265.12221800000009
10
-4.087980000000754
20
292.97058200000009
10
-4.00011200000037
20
293.05845000000022
10
-0.087980000001124381
20
293.05845000000022
10
-0.087980000001124381
20
336.21213200000005
10
-0.00011200000045619163
20
336.3000000000003
10
20.429469999998702
20
336.3000000000003
10
20.429469999998702
20
340.21213200000028
10
20.517337999999086
20
340.30000000000024
10
48.36570199999926
20
340.30000000000024
10
48.453569999998649
20
340.21213200000028
10
48.453569999998649
20
336.3000000000003
10
75.877669999999412
20
336.3000000000003
10
75.877669999999412
20
340.21213200000028
10
75.965537999998801
20
340.30000000000024
10
103.813901999999
20
340.30000000000024
10
103.90176999999966
20
340.21213200000028
10
103.90176999999966
20
336.3000000000003
10
131.32586999999916
20
336.3000000000003
10
131.32586999999916
20
340.21213200000028
10
131.41373799999968
20
340.30000000000024
10
159.26210199999986
20
340.30000000000024
10
159.34996999999896
20
340.21213200000028
10
159.34996999999896
20
336.3000000000003
10
186.77406999999974
20
336.3000000000003
10
186.77406999999974
20
340.21213200000028
10
186.86193799999916
20
340.30000000000024
10
214.7103019999993
20
340.30000000000024
10
214.79817
20
340.21213200000028
10
214.79817
20
336.3000000000003
10
242.22226999999933
20
336.3000000000003
10
242.22226999999933
20
340.21213200000028
10
242.31013799999999
20
340.30000000000024
10
270.15850199999875
20
340.30000000000024
10
270.24636999999939
20
340.21213200000028
10
270.24636999999939
20
336.3000000000003
10
297.67046999999889
20
336.3000000000003
10
297.67046999999889
20
340.21213200000028
10
297.75833799999975
20
340.30000000000024
10
325.6067019999997
20
340.30000000000024
10
325.69456999999932
20
340.21213200000028
10
325.69456999999932
20
336.3000000000003
10
346.12415199999981
20
336.3000000000003
10
346.21201999999982
20
336.21213200000005
10
346.21201999999982
20
293.05845000000022
10
350.12415199999919
20
293.05845000000022
10
350.2120199999996
20
292.97058200000009
10
350.2120199999996
20
265.12221800000009
10
350.12415199999919
20
265.03435000000013
10
346.21201999999982
20
265.03435000000013
10
346.21201999999982
20
237.61025000000015
10
350.12415199999919
20
237.61025000000015
10
350.2120199999996
20
237.52238200000008
0
LWPOLYLINE
5
101
100
AcDbEntity
8
0
100
AcDbPolyline
90
16
70
1
43
0.0
10
101.99988799999956
20
268.00000000000006
10
101.99988799999957
20
95
10
128.83172262679312
20
95
10
128.83172262679312
20
230
10
150
20
230
10
150
20
95
10
222.3106354520182
20
95
10
222.3106354520182
20
226.23378499366578
10
240
20
226.23378499366578
10
240
20
95
10
274.9998879999996
20
95
10
274.9998879999996
20
268.00000000000006
10
195.72107802617643
20
268.00000000000006
10
195.72107802617643
20
162.5
10
170.79336793944972
20
162.5
10
170.79336793944972
20
268.00000000000006
0
LWPOLYLINE
5
102
100
AcDbEntity
8
0
100
AcDbPolyline
90
4
70
1
43
0.0
10
221
20
20
10
221
20
49
10
150
20
49
10
150
20
20
0
ENDSEC
0
SECTION
2
OBJECTS
0
DICTIONARY
5
C
100
AcDbDictionary
3
ACAD_GROUP
350
D
3
ACAD_MLINESTYLE
350
17
0
DICTIONARY
5
D
100
AcDbDictionary
0
DICTIONARY
5
1A
330
C
100
AcDbDictionary
0
DICTIONARY
5
17
100
AcDbDictionary
0
ENDSEC
0
EOF
